<svg xmlns="http://www.w3.org/2000/svg" viewBox="0 0 64 64"><path fill-rule="evenodd" d="M36.54 41.98v0c2.23.93 4.55 1.65 6.92 2.14v0c1.03-1.95 3.44-2.68 5.38-1.65 .49.26.92.62 1.27 1.06v0c.21-.18.38-.38.52-.62 .8-1.43.01-3.64-1.97-6.17v0c-.31-.42-.26-.99.12-1.34q.61-.58 1.2-1.18l-.001-.001c.39-.4 1.02-.4 1.42-.01 .03.03.06.07.09.11 3.09 4.07 4.26 7.92 2.75 10.55v0c-.83 1.3-2.14 2.23-3.64 2.59v0c-.84 2.03-3.17 3-5.2 2.17 -.91-.37-1.64-1.06-2.07-1.94 -6.07-.87-12.479-3.65-17.79-6.86 1.08 7.71 3.53 13.1 6.38 13.1 1.68 0 3.22-1.9 4.43-5.04v0c.18-.5.71-.76 1.21-.61q.75.22 1.51.43v0c.53.14.85.69.71 1.23 -.02.04-.03.08-.05.13 -2 4.82-4.77 7.83-7.85 7.83 -6.36 0-11.25-12.66-10.97-27l0-.001c-2 1.53-3.84 3.26-5.48 5.16v0c1.01 1.92.27 4.31-1.66 5.32 -.3.15-.62.27-.95.35l0-.001c.03.3.13.6.28.87 .82 1.41 3.11 1.82 6.25 1.38v0c.5-.07.97.27 1.08.77q.19.82.41 1.64h-.001c.14.53-.17 1.09-.71 1.23 -.05.01-.1.02-.15.02 -5.05.63-8.94-.28-10.45-2.9h0c-.66-1.26-.84-2.72-.49-4.1h0c-1.56-1.54-1.58-4.05-.04-5.61 .9-.92 2.19-1.34 3.46-1.13 3.78-4.88 9.42-9.09 14.8-12.07 -7.02-2.86-12.73-3.4-14.12-.96 -.81 1.42-.02 3.61 1.94 6.14v0c.3.4.25.98-.13 1.32q-.62.58-1.21 1.17v0c-.39.39-1.03.4-1.43.01 -.04-.04-.07-.08-.1-.12 -3.08-4.07-4.25-7.91-2.74-10.53 3.18-5.55 16.64-3.33 28.68 4.02v0c-.32-2.42-.86-4.81-1.61-7.12v0c-2.2-.12-3.89-2-3.78-4.19 .02-.48.13-.95.32-1.38v0c-.4-.26-.86-.41-1.33-.42 -1.69 0-3.22 1.88-4.43 5l-.001-.001c-.19.48-.72.75-1.22.6q-.76-.24-1.52-.44v0c-.54-.15-.86-.7-.72-1.24 .01-.05.02-.09.04-.14 1.99-4.81 4.75-7.8 7.82-7.8l0 0c1.65.07 3.2.82 4.29 2.07v0c2.16-.39 4.23 1.05 4.61 3.22 .2 1.13-.1 2.29-.82 3.18l-.001 0c2.1 5.94 3.06 12.22 2.85 18.52 5.92-4.65 9.21-9.32 7.8-11.74 -.83-1.42-3.13-1.83-6.29-1.39v0c-.51.06-.98-.28-1.09-.78q-.2-.83-.42-1.65h-.001c-.15-.54.16-1.1.7-1.24 .04-.02.09-.03.14-.03 5.06-.65 8.96.26 10.47 2.89 3.82 6.64-8.3 17.689-17.75 22.89Zm2.33-13.83l0 0c-2.19-1.49-4.47-2.84-6.83-4.03l0-.001c-2.39 1.16-4.7 2.48-6.92 3.94l0 0c-.17 2.58-.17 5.18-.02 7.76l-.001-.001c2.18 1.49 4.46 2.83 6.82 4.03h-.001c2.38-1.17 4.69-2.48 6.91-3.94h0c.16-2.59.17-5.19.01-7.78Z" fill="#55534E" /></svg>