<svg xmlns="http://www.w3.org/2000/svg" viewBox="0 0 64 64"><path fill-rule="evenodd" d="M45 48v3.5 0c0 .27.22.5.5.5H48v0c.55 0 1 .44 1 1v2 0c0 .55-.45 1-1 1H16v0c-.56 0-1-.45-1-1v-2 0c0-.56.44-1 1-1h2.5v0c.27 0 .5-.23.5-.5V48c0-12.04 9-12.63 9-16 0-3.38-9-3.97-9-16v-3.5 0c0-.28-.23-.5-.5-.5H16v0c-.56 0-1-.45-1-1V9v0c0-.56.44-1 1-1h32v0c.55 0 1 .44 1 1v2 0c0 .55-.45 1-1 1h-2.5v0c-.28 0-.5.22-.5.5V16c0 12.03-9 12.62-9 16 0 3.37 9 3.96 9 16Zm-4.57-30h-.001c.25 0 .47-.2.5-.45 .04-.49.06-1 .06-1.56v-3.5 0c0-.28-.23-.5-.5-.5h-17v0c-.28 0-.5.22-.5.5v3.5c0 .55.02 1.06.06 1.55v0c.02.25.24.45.5.44Zm-8.44 17.99c-1.19 0-2.36.95-4.05 2.25 -2.44 1.88-4.96 3.83-4.96 9.73v0c.05.63.6 1.1 1.24 1.04 .18-.02.36-.08.52-.18 0 0 2.24-.98 4.14-2.06v-.001c1.92-1.08 4.26-1.08 6.18 0 1.9 1.07 4.14 2.05 4.14 2.05h-.001c.53.34 1.24.18 1.58-.36 .1-.16.16-.34.17-.53 0-5.9-2.53-7.85-4.96-9.73 -1.69-1.31-2.86-2.26-4.05-2.26Z" fill="#55534E" /></svg>