<svg xmlns="http://www.w3.org/2000/svg" viewBox="0 0 64 64"><path fill-rule="evenodd" d="M49.55 14.81c1.1 1.56 1.8 4.56 1.25 5.09 -.55.52-4.58-1.91-5.85-1.91l-.001 0c-1.48.52-2.89 1.22-4.2 2.08 2.13 1.12 5.52 3.95 6.07 6.52 .55 2.59-.51 7.38-1.86 7.38 -.96 0-2.29-3.56-3.04-4.52 -.76-.96-7.51-4.49-9.95-4.49 -2.44 0-9.23 3.53-9.98 4.48 -.76.95-2.09 4.51-3.05 4.51 -1.36 0-2.43-4.79-1.87-7.39 .55-2.59 3.96-5.42 6.1-6.54v0c-1.31-.87-2.72-1.56-4.2-2.08 -1.27 0-5.32 2.43-5.87 1.9 -.55-.53.14-3.53 1.25-5.1v-.001c1.87-2.31 4.63-3.7 7.6-3.82 1.73 0 4.11 1.15 6.12 2.35 .91-3.03 2.14-6.53 2.83-7.36v0c.94-1.27 2.42-2.01 4-2 1.46 0 7 .82 7 2 0 1.17-3.52 2.4-4.01 3L37.88 8.9c-.48 1.2-.82 2.45-1.04 3.73v0c1.52-.96 3.23-1.55 5.02-1.74v-.001c2.95.12 5.71 1.51 7.57 3.81ZM27.99 28.24v0c1.23-.68 2.59-1.1 3.99-1.25v0c1.4.15 2.75.57 3.99 1.25v-.001c.55.81.9 1.76.99 2.75v0c-.1.98-.45 1.93-1 2.75v0c-.22.15-.45.28-.7.37v0c-.19.07-.31.25-.31.45v11.41l0 0c0 2.95.34 5.9 1 8.78h0c.12.52-.2 1.06-.73 1.19 -.07.01-.13.02-.2.02h-6.17v0c-.55-.03-.97-.49-.95-1.03 0-.07.01-.13.02-.2v0c.65-2.89.99-5.83 1-8.79V34.51v0c0-.2-.12-.39-.31-.46v0c-.25-.09-.49-.22-.7-.38v0c-.56-.82-.91-1.77-1-2.75v0c.09-.99.44-1.94.99-2.75Z" fill="#55534E" /></svg>